<?xml version="1.0" encoding="UTF-8"?>
<svg id="Layer_1" data-name="Layer 1" xmlns="http://www.w3.org/2000/svg" xmlns:xlink="http://www.w3.org/1999/xlink" viewBox="0 0 934.66 718.01">
  <defs>
    <style>
      .cls-1 {
        stroke-width: 4px;
      }

      .cls-1, .cls-2, .cls-3, .cls-4, .cls-5 {
        stroke: #d4af37;
        stroke-miterlimit: 10;
      }

      .cls-1, .cls-3, .cls-4, .cls-5 {
        fill: none;
      }

      .cls-2, .cls-6, .cls-7 {
        fill: #d4af37;
      }

      .cls-8 {
        filter: url(#outer-glow-1);
      }

      .cls-3 {
        stroke-width: 3px;
      }

      .cls-9 {
        fill: #1d202b;
      }

      .cls-4 {
        stroke-width: 6px;
      }

      .cls-6 {
        font-family: Papyrus-Regular, Papyrus;
        font-size: 113.62px;
        isolation: isolate;
        letter-spacing: .34em;
      }

      .cls-5 {
        stroke-width: 5px;
      }
    </style>
    <filter id="outer-glow-1" filterUnits="userSpaceOnUse">
      <feOffset dx="0" dy="0"/>
      <feGaussianBlur result="blur" stdDeviation="10"/>
      <feFlood flood-color="#afd3ff" flood-opacity=".75"/>
      <feComposite in2="blur" operator="in"/>
      <feComposite in="SourceGraphic"/>
    </filter>
  </defs>
  <g id="Layer_5" data-name="Layer 5">
    <g class="cls-8">
      <ellipse class="cls-9" cx="262" cy="373.5" rx="262" ry="264"/>
    </g>
    <ellipse class="cls-5" cx="347.67" cy="326.26" rx="27.2" ry="26.03"/>
    <ellipse class="cls-5" cx="155.68" cy="342.13" rx="24.26" ry="23.21"/>
    <ellipse class="cls-4" cx="277.81" cy="414.94" rx="24.28" ry="23.23"/>
    <ellipse class="cls-1" cx="84.84" cy="300.24" rx="13.54" ry="12.96"/>
    <ellipse class="cls-1" cx="260.21" cy="506.82" rx="8.46" ry="8.1"/>
    <ellipse class="cls-1" cx="242.25" cy="247.17" rx="11.28" ry="10.8"/>
    <ellipse class="cls-1" cx="145.74" cy="438.17" rx="7.6" ry="7.56"/>
    <ellipse class="cls-1" cx="403.81" cy="260.18" rx="11.39" ry="10.9"/>
    <ellipse class="cls-1" cx="302.06" cy="288.28" rx="10.72" ry="10.26"/>
    <ellipse class="cls-1" cx="183.76" cy="295.69" rx="8.18" ry="8.1"/>
    <ellipse class="cls-7" cx="347.67" cy="236.37" rx="13.6" ry="13.01"/>
    <ellipse class="cls-7" cx="63.08" cy="382" rx="10.16" ry="9.72"/>
    <ellipse class="cls-7" cx="186.34" cy="219.72" rx="17.49" ry="16.66"/>
    <ellipse class="cls-7" cx="191.94" cy="558.8" rx="10.72" ry="10.26"/>
    <ellipse class="cls-7" cx="393.94" cy="460.31" rx="15.23" ry="14.58"/>
    <line class="cls-3" x1="331.86" y1="347.44" x2="296.01" y2="399.57"/>
    <line class="cls-3" x1="403.81" y1="271.08" x2="372.37" y2="310.73"/>
    <line class="cls-3" x1="262" y1="498.31" x2="274.12" y2="440.66"/>
    <line class="cls-3" x1="268.06" y1="391.72" x2="242.25" y2="257.97"/>
    <line class="cls-3" x1="289.46" y1="287.59" x2="191.94" y2="295.69"/>
    <line class="cls-3" x1="327.03" y1="309.32" x2="309.45" y2="295.69"/>
    <line class="cls-3" x1="179.94" y1="303.79" x2="165.47" y2="320.89"/>
    <line class="cls-3" x1="94.49" y1="309.32" x2="137.98" y2="326.26"/>
    <line class="cls-3" x1="153.34" y1="366.73" x2="145.74" y2="430.62"/>
    <text class="cls-6" transform="translate(566.33 424.26)"><tspan x="0" y="0">äppi</tspan></text>
    <polygon class="cls-2" points="595.47 .26 372.37 361.07 452.82 386.33 595.47 .26"/>
    <g>
      <polygon class="cls-7" points="329.67 717.56 543.65 351.27 462.6 328.03 329.67 717.56"/>
      <path class="cls-7" d="M329.88,717.1c53.11-91.36,160.09-274.86,213.34-366.09l.29,.73-81.05-23.24,.61-.32c.27,.3,.75,.87,.99,1.18,6.23,7.58,10.59,18.77,6.83,27.87-1.13,.2-4.14-.47-5.56-.69-3.17-.5-7.81-1.48-10.99-1.78-.3-.02-.76-.02-.89,.08-.05,.05-.17,.48-.21,.57-.65,1.9-2.44,7.16-3.11,9.13-31.95,94.01-87.64,257.2-120.25,352.56h0Zm-.42,.91c33.81-99.22,89.31-262.02,122.75-359.55,.11-.32,1.16-3.33,1.23-3.62-.15-.3-.96-.6-1.31-.76-.45-.18-.8-.36-1.3-.55-2.08-.75-6.28-2.3-8.36-3.06-1.3-.52-4.23-1.43-5.04-2.21,2.79-10,12.88-17.66,23.19-20.06,.37-.1,1.13-.27,1.51-.34l.61-.32,81.05,23.24,.62,.18-.32,.56c-53.42,91.32-161.08,275.27-214.63,366.49h0Z"/>
    </g>
  </g>
</svg>